<mxfile host="app.diagrams.net" modified="2024-04-09T16:21:00.702Z" agent="Mozilla/5.0 (Windows NT 10.0; Win64; x64) AppleWebKit/537.36 (KHTML, like Gecko) Chrome/123.0.0.0 Safari/537.36" etag="HuFwZ8EBnWTcllwPh1sP" version="24.2.1" type="device">
  <diagram name="Page-1" id="Ihk42xxBim-FYoykzDt6">
    <mxGraphModel dx="2990" dy="557" grid="1" gridSize="10" guides="1" tooltips="1" connect="1" arrows="1" fold="1" page="1" pageScale="1" pageWidth="850" pageHeight="1100" math="0" shadow="0">
      <root>
        <mxCell id="0" />
        <mxCell id="1" parent="0" />
        <mxCell id="wB3c-BsViE5wdefNrvCy-48" value="Employee" style="swimlane;fontStyle=1;align=center;verticalAlign=top;childLayout=stackLayout;horizontal=1;startSize=26;horizontalStack=0;resizeParent=1;resizeParentMax=0;resizeLast=0;collapsible=1;marginBottom=0;whiteSpace=wrap;html=1;" vertex="1" parent="1">
          <mxGeometry x="-360" y="940" width="160" height="268" as="geometry" />
        </mxCell>
        <mxCell id="wB3c-BsViE5wdefNrvCy-49" value="+ EmployeeID: int" style="text;strokeColor=none;fillColor=none;align=left;verticalAlign=top;spacingLeft=4;spacingRight=4;overflow=hidden;rotatable=0;points=[[0,0.5],[1,0.5]];portConstraint=eastwest;whiteSpace=wrap;html=1;" vertex="1" parent="wB3c-BsViE5wdefNrvCy-48">
          <mxGeometry y="26" width="160" height="26" as="geometry" />
        </mxCell>
        <mxCell id="wB3c-BsViE5wdefNrvCy-52" value="+ FirstName: string" style="text;strokeColor=none;fillColor=none;align=left;verticalAlign=top;spacingLeft=4;spacingRight=4;overflow=hidden;rotatable=0;points=[[0,0.5],[1,0.5]];portConstraint=eastwest;whiteSpace=wrap;html=1;" vertex="1" parent="wB3c-BsViE5wdefNrvCy-48">
          <mxGeometry y="52" width="160" height="26" as="geometry" />
        </mxCell>
        <mxCell id="wB3c-BsViE5wdefNrvCy-54" value="+ Surname: string" style="text;strokeColor=none;fillColor=none;align=left;verticalAlign=top;spacingLeft=4;spacingRight=4;overflow=hidden;rotatable=0;points=[[0,0.5],[1,0.5]];portConstraint=eastwest;whiteSpace=wrap;html=1;" vertex="1" parent="wB3c-BsViE5wdefNrvCy-48">
          <mxGeometry y="78" width="160" height="26" as="geometry" />
        </mxCell>
        <mxCell id="wB3c-BsViE5wdefNrvCy-55" value="+ Email: string" style="text;strokeColor=none;fillColor=none;align=left;verticalAlign=top;spacingLeft=4;spacingRight=4;overflow=hidden;rotatable=0;points=[[0,0.5],[1,0.5]];portConstraint=eastwest;whiteSpace=wrap;html=1;" vertex="1" parent="wB3c-BsViE5wdefNrvCy-48">
          <mxGeometry y="104" width="160" height="26" as="geometry" />
        </mxCell>
        <mxCell id="wB3c-BsViE5wdefNrvCy-56" value="+ UserName: string" style="text;strokeColor=none;fillColor=none;align=left;verticalAlign=top;spacingLeft=4;spacingRight=4;overflow=hidden;rotatable=0;points=[[0,0.5],[1,0.5]];portConstraint=eastwest;whiteSpace=wrap;html=1;" vertex="1" parent="wB3c-BsViE5wdefNrvCy-48">
          <mxGeometry y="130" width="160" height="26" as="geometry" />
        </mxCell>
        <mxCell id="wB3c-BsViE5wdefNrvCy-57" value="+ Address: string" style="text;strokeColor=none;fillColor=none;align=left;verticalAlign=top;spacingLeft=4;spacingRight=4;overflow=hidden;rotatable=0;points=[[0,0.5],[1,0.5]];portConstraint=eastwest;whiteSpace=wrap;html=1;" vertex="1" parent="wB3c-BsViE5wdefNrvCy-48">
          <mxGeometry y="156" width="160" height="26" as="geometry" />
        </mxCell>
        <mxCell id="wB3c-BsViE5wdefNrvCy-58" value="+ PhoneNumber: int" style="text;strokeColor=none;fillColor=none;align=left;verticalAlign=top;spacingLeft=4;spacingRight=4;overflow=hidden;rotatable=0;points=[[0,0.5],[1,0.5]];portConstraint=eastwest;whiteSpace=wrap;html=1;" vertex="1" parent="wB3c-BsViE5wdefNrvCy-48">
          <mxGeometry y="182" width="160" height="26" as="geometry" />
        </mxCell>
        <mxCell id="wB3c-BsViE5wdefNrvCy-53" value="+ Role: int" style="text;strokeColor=none;fillColor=none;align=left;verticalAlign=top;spacingLeft=4;spacingRight=4;overflow=hidden;rotatable=0;points=[[0,0.5],[1,0.5]];portConstraint=eastwest;whiteSpace=wrap;html=1;" vertex="1" parent="wB3c-BsViE5wdefNrvCy-48">
          <mxGeometry y="208" width="160" height="26" as="geometry" />
        </mxCell>
        <mxCell id="wB3c-BsViE5wdefNrvCy-50" value="" style="line;strokeWidth=1;fillColor=none;align=left;verticalAlign=middle;spacingTop=-1;spacingLeft=3;spacingRight=3;rotatable=0;labelPosition=right;points=[];portConstraint=eastwest;strokeColor=inherit;" vertex="1" parent="wB3c-BsViE5wdefNrvCy-48">
          <mxGeometry y="234" width="160" height="8" as="geometry" />
        </mxCell>
        <mxCell id="wB3c-BsViE5wdefNrvCy-51" value="&amp;nbsp;" style="text;strokeColor=none;fillColor=none;align=left;verticalAlign=top;spacingLeft=4;spacingRight=4;overflow=hidden;rotatable=0;points=[[0,0.5],[1,0.5]];portConstraint=eastwest;whiteSpace=wrap;html=1;" vertex="1" parent="wB3c-BsViE5wdefNrvCy-48">
          <mxGeometry y="242" width="160" height="26" as="geometry" />
        </mxCell>
        <mxCell id="wB3c-BsViE5wdefNrvCy-63" value="Note" style="swimlane;fontStyle=1;align=center;verticalAlign=top;childLayout=stackLayout;horizontal=1;startSize=26;horizontalStack=0;resizeParent=1;resizeParentMax=0;resizeLast=0;collapsible=1;marginBottom=0;whiteSpace=wrap;html=1;" vertex="1" parent="1">
          <mxGeometry x="-360" y="710" width="160" height="138" as="geometry" />
        </mxCell>
        <mxCell id="wB3c-BsViE5wdefNrvCy-67" value="+ NoteID: int" style="text;strokeColor=none;fillColor=none;align=left;verticalAlign=top;spacingLeft=4;spacingRight=4;overflow=hidden;rotatable=0;points=[[0,0.5],[1,0.5]];portConstraint=eastwest;whiteSpace=wrap;html=1;" vertex="1" parent="wB3c-BsViE5wdefNrvCy-63">
          <mxGeometry y="26" width="160" height="26" as="geometry" />
        </mxCell>
        <mxCell id="wB3c-BsViE5wdefNrvCy-64" value="+ Note: string" style="text;strokeColor=none;fillColor=none;align=left;verticalAlign=top;spacingLeft=4;spacingRight=4;overflow=hidden;rotatable=0;points=[[0,0.5],[1,0.5]];portConstraint=eastwest;whiteSpace=wrap;html=1;" vertex="1" parent="wB3c-BsViE5wdefNrvCy-63">
          <mxGeometry y="52" width="160" height="26" as="geometry" />
        </mxCell>
        <mxCell id="wB3c-BsViE5wdefNrvCy-69" value="+ createdDate: date" style="text;strokeColor=none;fillColor=none;align=left;verticalAlign=top;spacingLeft=4;spacingRight=4;overflow=hidden;rotatable=0;points=[[0,0.5],[1,0.5]];portConstraint=eastwest;whiteSpace=wrap;html=1;" vertex="1" parent="wB3c-BsViE5wdefNrvCy-63">
          <mxGeometry y="78" width="160" height="26" as="geometry" />
        </mxCell>
        <mxCell id="wB3c-BsViE5wdefNrvCy-65" value="" style="line;strokeWidth=1;fillColor=none;align=left;verticalAlign=middle;spacingTop=-1;spacingLeft=3;spacingRight=3;rotatable=0;labelPosition=right;points=[];portConstraint=eastwest;strokeColor=inherit;" vertex="1" parent="wB3c-BsViE5wdefNrvCy-63">
          <mxGeometry y="104" width="160" height="8" as="geometry" />
        </mxCell>
        <mxCell id="wB3c-BsViE5wdefNrvCy-66" value="&amp;nbsp;" style="text;strokeColor=none;fillColor=none;align=left;verticalAlign=top;spacingLeft=4;spacingRight=4;overflow=hidden;rotatable=0;points=[[0,0.5],[1,0.5]];portConstraint=eastwest;whiteSpace=wrap;html=1;" vertex="1" parent="wB3c-BsViE5wdefNrvCy-63">
          <mxGeometry y="112" width="160" height="26" as="geometry" />
        </mxCell>
        <mxCell id="wB3c-BsViE5wdefNrvCy-81" value="Payment" style="swimlane;fontStyle=1;align=center;verticalAlign=top;childLayout=stackLayout;horizontal=1;startSize=26;horizontalStack=0;resizeParent=1;resizeParentMax=0;resizeLast=0;collapsible=1;marginBottom=0;whiteSpace=wrap;html=1;" vertex="1" parent="1">
          <mxGeometry x="-680" y="100" width="160" height="180" as="geometry" />
        </mxCell>
        <mxCell id="wB3c-BsViE5wdefNrvCy-85" value="+ PaymentID : int" style="text;strokeColor=none;fillColor=none;align=left;verticalAlign=middle;spacingLeft=4;spacingRight=4;overflow=hidden;points=[[0,0.5],[1,0.5]];portConstraint=eastwest;rotatable=0;whiteSpace=wrap;html=1;" vertex="1" parent="wB3c-BsViE5wdefNrvCy-81">
          <mxGeometry y="26" width="160" height="30" as="geometry" />
        </mxCell>
        <mxCell id="wB3c-BsViE5wdefNrvCy-87" value="+ PaymentDate : date" style="text;strokeColor=none;fillColor=none;align=left;verticalAlign=middle;spacingLeft=4;spacingRight=4;overflow=hidden;points=[[0,0.5],[1,0.5]];portConstraint=eastwest;rotatable=0;whiteSpace=wrap;html=1;" vertex="1" parent="wB3c-BsViE5wdefNrvCy-81">
          <mxGeometry y="56" width="160" height="30" as="geometry" />
        </mxCell>
        <mxCell id="wB3c-BsViE5wdefNrvCy-86" value="+ PaymentMethod : string" style="text;strokeColor=none;fillColor=none;align=left;verticalAlign=middle;spacingLeft=4;spacingRight=4;overflow=hidden;points=[[0,0.5],[1,0.5]];portConstraint=eastwest;rotatable=0;whiteSpace=wrap;html=1;" vertex="1" parent="wB3c-BsViE5wdefNrvCy-81">
          <mxGeometry y="86" width="160" height="30" as="geometry" />
        </mxCell>
        <mxCell id="wB3c-BsViE5wdefNrvCy-88" value="+ Amount: decimal" style="text;strokeColor=none;fillColor=none;align=left;verticalAlign=middle;spacingLeft=4;spacingRight=4;overflow=hidden;points=[[0,0.5],[1,0.5]];portConstraint=eastwest;rotatable=0;whiteSpace=wrap;html=1;" vertex="1" parent="wB3c-BsViE5wdefNrvCy-81">
          <mxGeometry y="116" width="160" height="30" as="geometry" />
        </mxCell>
        <mxCell id="wB3c-BsViE5wdefNrvCy-83" value="" style="line;strokeWidth=1;fillColor=none;align=left;verticalAlign=middle;spacingTop=-1;spacingLeft=3;spacingRight=3;rotatable=0;labelPosition=right;points=[];portConstraint=eastwest;strokeColor=inherit;" vertex="1" parent="wB3c-BsViE5wdefNrvCy-81">
          <mxGeometry y="146" width="160" height="8" as="geometry" />
        </mxCell>
        <mxCell id="wB3c-BsViE5wdefNrvCy-84" value="&amp;nbsp;" style="text;strokeColor=none;fillColor=none;align=left;verticalAlign=top;spacingLeft=4;spacingRight=4;overflow=hidden;rotatable=0;points=[[0,0.5],[1,0.5]];portConstraint=eastwest;whiteSpace=wrap;html=1;" vertex="1" parent="wB3c-BsViE5wdefNrvCy-81">
          <mxGeometry y="154" width="160" height="26" as="geometry" />
        </mxCell>
        <mxCell id="wB3c-BsViE5wdefNrvCy-89" value="Discount" style="swimlane;fontStyle=1;align=center;verticalAlign=top;childLayout=stackLayout;horizontal=1;startSize=26;horizontalStack=0;resizeParent=1;resizeParentMax=0;resizeLast=0;collapsible=1;marginBottom=0;whiteSpace=wrap;html=1;" vertex="1" parent="1">
          <mxGeometry x="-680" y="810" width="160" height="176" as="geometry" />
        </mxCell>
        <mxCell id="wB3c-BsViE5wdefNrvCy-90" value="+ DiscountID: int" style="text;strokeColor=none;fillColor=none;align=left;verticalAlign=top;spacingLeft=4;spacingRight=4;overflow=hidden;rotatable=0;points=[[0,0.5],[1,0.5]];portConstraint=eastwest;whiteSpace=wrap;html=1;" vertex="1" parent="wB3c-BsViE5wdefNrvCy-89">
          <mxGeometry y="26" width="160" height="26" as="geometry" />
        </mxCell>
        <mxCell id="wB3c-BsViE5wdefNrvCy-93" value="+ Name: string" style="text;strokeColor=none;fillColor=none;align=left;verticalAlign=middle;spacingLeft=4;spacingRight=4;overflow=hidden;points=[[0,0.5],[1,0.5]];portConstraint=eastwest;rotatable=0;whiteSpace=wrap;html=1;" vertex="1" parent="wB3c-BsViE5wdefNrvCy-89">
          <mxGeometry y="52" width="160" height="30" as="geometry" />
        </mxCell>
        <mxCell id="wB3c-BsViE5wdefNrvCy-94" value="+ Rate: decimal" style="text;strokeColor=none;fillColor=none;align=left;verticalAlign=middle;spacingLeft=4;spacingRight=4;overflow=hidden;points=[[0,0.5],[1,0.5]];portConstraint=eastwest;rotatable=0;whiteSpace=wrap;html=1;" vertex="1" parent="wB3c-BsViE5wdefNrvCy-89">
          <mxGeometry y="82" width="160" height="30" as="geometry" />
        </mxCell>
        <mxCell id="wB3c-BsViE5wdefNrvCy-95" value="+ Amount: decimal" style="text;strokeColor=none;fillColor=none;align=left;verticalAlign=middle;spacingLeft=4;spacingRight=4;overflow=hidden;points=[[0,0.5],[1,0.5]];portConstraint=eastwest;rotatable=0;whiteSpace=wrap;html=1;" vertex="1" parent="wB3c-BsViE5wdefNrvCy-89">
          <mxGeometry y="112" width="160" height="30" as="geometry" />
        </mxCell>
        <mxCell id="wB3c-BsViE5wdefNrvCy-91" value="" style="line;strokeWidth=1;fillColor=none;align=left;verticalAlign=middle;spacingTop=-1;spacingLeft=3;spacingRight=3;rotatable=0;labelPosition=right;points=[];portConstraint=eastwest;strokeColor=inherit;" vertex="1" parent="wB3c-BsViE5wdefNrvCy-89">
          <mxGeometry y="142" width="160" height="8" as="geometry" />
        </mxCell>
        <mxCell id="wB3c-BsViE5wdefNrvCy-92" value="&amp;nbsp;" style="text;strokeColor=none;fillColor=none;align=left;verticalAlign=top;spacingLeft=4;spacingRight=4;overflow=hidden;rotatable=0;points=[[0,0.5],[1,0.5]];portConstraint=eastwest;whiteSpace=wrap;html=1;" vertex="1" parent="wB3c-BsViE5wdefNrvCy-89">
          <mxGeometry y="150" width="160" height="26" as="geometry" />
        </mxCell>
        <mxCell id="wB3c-BsViE5wdefNrvCy-130" value="InvoiceItem" style="swimlane;fontStyle=1;align=center;verticalAlign=top;childLayout=stackLayout;horizontal=1;startSize=26;horizontalStack=0;resizeParent=1;resizeParentMax=0;resizeLast=0;collapsible=1;marginBottom=0;whiteSpace=wrap;html=1;" vertex="1" parent="1">
          <mxGeometry x="-360" y="442" width="160" height="164" as="geometry" />
        </mxCell>
        <mxCell id="wB3c-BsViE5wdefNrvCy-134" value="+ InvoiceItemID: int" style="text;align=left;verticalAlign=top;spacingLeft=4;spacingRight=4;overflow=hidden;rotatable=0;points=[[0,0.5],[1,0.5]];portConstraint=eastwest;" vertex="1" parent="wB3c-BsViE5wdefNrvCy-130">
          <mxGeometry y="26" width="160" height="26" as="geometry" />
        </mxCell>
        <mxCell id="wB3c-BsViE5wdefNrvCy-137" value="+ TotalPrice : decimal" style="text;align=left;verticalAlign=top;spacingLeft=4;spacingRight=4;overflow=hidden;rotatable=0;points=[[0,0.5],[1,0.5]];portConstraint=eastwest;" vertex="1" parent="wB3c-BsViE5wdefNrvCy-130">
          <mxGeometry y="52" width="160" height="26" as="geometry" />
        </mxCell>
        <mxCell id="wB3c-BsViE5wdefNrvCy-136" value="+ UnitPrice: decimal" style="text;align=left;verticalAlign=top;spacingLeft=4;spacingRight=4;overflow=hidden;rotatable=0;points=[[0,0.5],[1,0.5]];portConstraint=eastwest;" vertex="1" parent="wB3c-BsViE5wdefNrvCy-130">
          <mxGeometry y="78" width="160" height="26" as="geometry" />
        </mxCell>
        <mxCell id="wB3c-BsViE5wdefNrvCy-135" value="+ Quantity: int" style="text;align=left;verticalAlign=top;spacingLeft=4;spacingRight=4;overflow=hidden;rotatable=0;points=[[0,0.5],[1,0.5]];portConstraint=eastwest;rounded=0;shadow=0;html=0;" vertex="1" parent="wB3c-BsViE5wdefNrvCy-130">
          <mxGeometry y="104" width="160" height="26" as="geometry" />
        </mxCell>
        <mxCell id="wB3c-BsViE5wdefNrvCy-132" value="" style="line;strokeWidth=1;fillColor=none;align=left;verticalAlign=middle;spacingTop=-1;spacingLeft=3;spacingRight=3;rotatable=0;labelPosition=right;points=[];portConstraint=eastwest;strokeColor=inherit;" vertex="1" parent="wB3c-BsViE5wdefNrvCy-130">
          <mxGeometry y="130" width="160" height="8" as="geometry" />
        </mxCell>
        <mxCell id="wB3c-BsViE5wdefNrvCy-133" value="&amp;nbsp;" style="text;strokeColor=none;fillColor=none;align=left;verticalAlign=top;spacingLeft=4;spacingRight=4;overflow=hidden;rotatable=0;points=[[0,0.5],[1,0.5]];portConstraint=eastwest;whiteSpace=wrap;html=1;" vertex="1" parent="wB3c-BsViE5wdefNrvCy-130">
          <mxGeometry y="138" width="160" height="26" as="geometry" />
        </mxCell>
        <mxCell id="wB3c-BsViE5wdefNrvCy-138" value="Customer" style="swimlane;fontStyle=1;align=center;verticalAlign=top;childLayout=stackLayout;horizontal=1;startSize=26;horizontalStack=0;resizeParent=1;resizeParentMax=0;resizeLast=0;collapsible=1;marginBottom=0;whiteSpace=wrap;html=1;" vertex="1" parent="1">
          <mxGeometry x="-990" y="442" width="160" height="216" as="geometry" />
        </mxCell>
        <mxCell id="wB3c-BsViE5wdefNrvCy-142" value="+ CustomerId: int" style="text;align=left;verticalAlign=top;spacingLeft=4;spacingRight=4;overflow=hidden;rotatable=0;points=[[0,0.5],[1,0.5]];portConstraint=eastwest;" vertex="1" parent="wB3c-BsViE5wdefNrvCy-138">
          <mxGeometry y="26" width="160" height="26" as="geometry" />
        </mxCell>
        <mxCell id="wB3c-BsViE5wdefNrvCy-143" value="+ FirstName: string" style="text;align=left;verticalAlign=top;spacingLeft=4;spacingRight=4;overflow=hidden;rotatable=0;points=[[0,0.5],[1,0.5]];portConstraint=eastwest;rounded=0;shadow=0;html=0;" vertex="1" parent="wB3c-BsViE5wdefNrvCy-138">
          <mxGeometry y="52" width="160" height="26" as="geometry" />
        </mxCell>
        <mxCell id="wB3c-BsViE5wdefNrvCy-144" value="+ LastName: string" style="text;align=left;verticalAlign=top;spacingLeft=4;spacingRight=4;overflow=hidden;rotatable=0;points=[[0,0.5],[1,0.5]];portConstraint=eastwest;rounded=0;shadow=0;html=0;" vertex="1" parent="wB3c-BsViE5wdefNrvCy-138">
          <mxGeometry y="78" width="160" height="26" as="geometry" />
        </mxCell>
        <mxCell id="wB3c-BsViE5wdefNrvCy-147" value="+ Address: string" style="text;align=left;verticalAlign=top;spacingLeft=4;spacingRight=4;overflow=hidden;rotatable=0;points=[[0,0.5],[1,0.5]];portConstraint=eastwest;rounded=0;shadow=0;html=0;" vertex="1" parent="wB3c-BsViE5wdefNrvCy-138">
          <mxGeometry y="104" width="160" height="26" as="geometry" />
        </mxCell>
        <mxCell id="wB3c-BsViE5wdefNrvCy-146" value="+ Phone: string" style="text;align=left;verticalAlign=top;spacingLeft=4;spacingRight=4;overflow=hidden;rotatable=0;points=[[0,0.5],[1,0.5]];portConstraint=eastwest;rounded=0;shadow=0;html=0;" vertex="1" parent="wB3c-BsViE5wdefNrvCy-138">
          <mxGeometry y="130" width="160" height="26" as="geometry" />
        </mxCell>
        <mxCell id="wB3c-BsViE5wdefNrvCy-145" value="+ Email: string" style="text;align=left;verticalAlign=top;spacingLeft=4;spacingRight=4;overflow=hidden;rotatable=0;points=[[0,0.5],[1,0.5]];portConstraint=eastwest;rounded=0;shadow=0;html=0;" vertex="1" parent="wB3c-BsViE5wdefNrvCy-138">
          <mxGeometry y="156" width="160" height="26" as="geometry" />
        </mxCell>
        <mxCell id="wB3c-BsViE5wdefNrvCy-140" value="" style="line;strokeWidth=1;fillColor=none;align=left;verticalAlign=middle;spacingTop=-1;spacingLeft=3;spacingRight=3;rotatable=0;labelPosition=right;points=[];portConstraint=eastwest;strokeColor=inherit;" vertex="1" parent="wB3c-BsViE5wdefNrvCy-138">
          <mxGeometry y="182" width="160" height="8" as="geometry" />
        </mxCell>
        <mxCell id="wB3c-BsViE5wdefNrvCy-141" value="&amp;nbsp;" style="text;strokeColor=none;fillColor=none;align=left;verticalAlign=top;spacingLeft=4;spacingRight=4;overflow=hidden;rotatable=0;points=[[0,0.5],[1,0.5]];portConstraint=eastwest;whiteSpace=wrap;html=1;" vertex="1" parent="wB3c-BsViE5wdefNrvCy-138">
          <mxGeometry y="190" width="160" height="26" as="geometry" />
        </mxCell>
        <mxCell id="wB3c-BsViE5wdefNrvCy-148" value="Invoice" style="swimlane;fontStyle=1;align=center;verticalAlign=top;childLayout=stackLayout;horizontal=1;startSize=26;horizontalStack=0;resizeParent=1;resizeParentMax=0;resizeLast=0;collapsible=1;marginBottom=0;whiteSpace=wrap;html=1;" vertex="1" parent="1">
          <mxGeometry x="-680" y="416" width="160" height="242" as="geometry" />
        </mxCell>
        <mxCell id="wB3c-BsViE5wdefNrvCy-152" value="+ InvoiceID : int" style="text;align=left;verticalAlign=top;spacingLeft=4;spacingRight=4;overflow=hidden;rotatable=0;points=[[0,0.5],[1,0.5]];portConstraint=eastwest;" vertex="1" parent="wB3c-BsViE5wdefNrvCy-148">
          <mxGeometry y="26" width="160" height="26" as="geometry" />
        </mxCell>
        <mxCell id="wB3c-BsViE5wdefNrvCy-153" value="+ InvoiceDate: datetime&#xa;" style="text;align=left;verticalAlign=top;spacingLeft=4;spacingRight=4;overflow=hidden;rotatable=0;points=[[0,0.5],[1,0.5]];portConstraint=eastwest;rounded=0;shadow=0;html=0;" vertex="1" parent="wB3c-BsViE5wdefNrvCy-148">
          <mxGeometry y="52" width="160" height="26" as="geometry" />
        </mxCell>
        <mxCell id="wB3c-BsViE5wdefNrvCy-154" value="+ DueDate: datetime" style="text;align=left;verticalAlign=top;spacingLeft=4;spacingRight=4;overflow=hidden;rotatable=0;points=[[0,0.5],[1,0.5]];portConstraint=eastwest;rounded=0;shadow=0;html=0;" vertex="1" parent="wB3c-BsViE5wdefNrvCy-148">
          <mxGeometry y="78" width="160" height="26" as="geometry" />
        </mxCell>
        <mxCell id="wB3c-BsViE5wdefNrvCy-159" value="+ Status: string" style="text;align=left;verticalAlign=top;spacingLeft=4;spacingRight=4;overflow=hidden;rotatable=0;points=[[0,0.5],[1,0.5]];portConstraint=eastwest;rounded=0;shadow=0;html=0;" vertex="1" parent="wB3c-BsViE5wdefNrvCy-148">
          <mxGeometry y="104" width="160" height="26" as="geometry" />
        </mxCell>
        <mxCell id="wB3c-BsViE5wdefNrvCy-158" value="+ TotalAmount: decimal " style="text;align=left;verticalAlign=top;spacingLeft=4;spacingRight=4;overflow=hidden;rotatable=0;points=[[0,0.5],[1,0.5]];portConstraint=eastwest;rounded=0;shadow=0;html=0;" vertex="1" parent="wB3c-BsViE5wdefNrvCy-148">
          <mxGeometry y="130" width="160" height="26" as="geometry" />
        </mxCell>
        <mxCell id="wB3c-BsViE5wdefNrvCy-156" value="+ Tax: decimal" style="text;align=left;verticalAlign=top;spacingLeft=4;spacingRight=4;overflow=hidden;rotatable=0;points=[[0,0.5],[1,0.5]];portConstraint=eastwest;rounded=0;shadow=0;html=0;" vertex="1" parent="wB3c-BsViE5wdefNrvCy-148">
          <mxGeometry y="156" width="160" height="26" as="geometry" />
        </mxCell>
        <mxCell id="wB3c-BsViE5wdefNrvCy-155" value="+ Subtotal: decimal" style="text;align=left;verticalAlign=top;spacingLeft=4;spacingRight=4;overflow=hidden;rotatable=0;points=[[0,0.5],[1,0.5]];portConstraint=eastwest;rounded=0;shadow=0;html=0;" vertex="1" parent="wB3c-BsViE5wdefNrvCy-148">
          <mxGeometry y="182" width="160" height="26" as="geometry" />
        </mxCell>
        <mxCell id="wB3c-BsViE5wdefNrvCy-150" value="" style="line;strokeWidth=1;fillColor=none;align=left;verticalAlign=middle;spacingTop=-1;spacingLeft=3;spacingRight=3;rotatable=0;labelPosition=right;points=[];portConstraint=eastwest;strokeColor=inherit;" vertex="1" parent="wB3c-BsViE5wdefNrvCy-148">
          <mxGeometry y="208" width="160" height="8" as="geometry" />
        </mxCell>
        <mxCell id="wB3c-BsViE5wdefNrvCy-151" value="&amp;nbsp;" style="text;strokeColor=none;fillColor=none;align=left;verticalAlign=top;spacingLeft=4;spacingRight=4;overflow=hidden;rotatable=0;points=[[0,0.5],[1,0.5]];portConstraint=eastwest;whiteSpace=wrap;html=1;" vertex="1" parent="wB3c-BsViE5wdefNrvCy-148">
          <mxGeometry y="216" width="160" height="26" as="geometry" />
        </mxCell>
        <mxCell id="wB3c-BsViE5wdefNrvCy-160" value="Product" style="swimlane;fontStyle=1;align=center;verticalAlign=top;childLayout=stackLayout;horizontal=1;startSize=26;horizontalStack=0;resizeParent=1;resizeParentMax=0;resizeLast=0;collapsible=1;marginBottom=0;whiteSpace=wrap;html=1;" vertex="1" parent="1">
          <mxGeometry x="-360" y="150" width="160" height="190" as="geometry" />
        </mxCell>
        <mxCell id="wB3c-BsViE5wdefNrvCy-164" value="+ ProductsID: int" style="text;align=left;verticalAlign=top;spacingLeft=4;spacingRight=4;overflow=hidden;rotatable=0;points=[[0,0.5],[1,0.5]];portConstraint=eastwest;" vertex="1" parent="wB3c-BsViE5wdefNrvCy-160">
          <mxGeometry y="26" width="160" height="26" as="geometry" />
        </mxCell>
        <mxCell id="wB3c-BsViE5wdefNrvCy-165" value="+ Name: string" style="text;align=left;verticalAlign=top;spacingLeft=4;spacingRight=4;overflow=hidden;rotatable=0;points=[[0,0.5],[1,0.5]];portConstraint=eastwest;rounded=0;shadow=0;html=0;" vertex="1" parent="wB3c-BsViE5wdefNrvCy-160">
          <mxGeometry y="52" width="160" height="26" as="geometry" />
        </mxCell>
        <mxCell id="wB3c-BsViE5wdefNrvCy-168" value="+ StockQuantity: int" style="text;align=left;verticalAlign=top;spacingLeft=4;spacingRight=4;overflow=hidden;rotatable=0;points=[[0,0.5],[1,0.5]];portConstraint=eastwest;rounded=0;shadow=0;html=0;" vertex="1" parent="wB3c-BsViE5wdefNrvCy-160">
          <mxGeometry y="78" width="160" height="26" as="geometry" />
        </mxCell>
        <mxCell id="wB3c-BsViE5wdefNrvCy-167" value="+ Price: decimal" style="text;align=left;verticalAlign=top;spacingLeft=4;spacingRight=4;overflow=hidden;rotatable=0;points=[[0,0.5],[1,0.5]];portConstraint=eastwest;rounded=0;shadow=0;html=0;" vertex="1" parent="wB3c-BsViE5wdefNrvCy-160">
          <mxGeometry y="104" width="160" height="26" as="geometry" />
        </mxCell>
        <mxCell id="wB3c-BsViE5wdefNrvCy-166" value="+ Description: string&#xa;" style="text;align=left;verticalAlign=top;spacingLeft=4;spacingRight=4;overflow=hidden;rotatable=0;points=[[0,0.5],[1,0.5]];portConstraint=eastwest;rounded=0;shadow=0;html=0;" vertex="1" parent="wB3c-BsViE5wdefNrvCy-160">
          <mxGeometry y="130" width="160" height="26" as="geometry" />
        </mxCell>
        <mxCell id="wB3c-BsViE5wdefNrvCy-162" value="" style="line;strokeWidth=1;fillColor=none;align=left;verticalAlign=middle;spacingTop=-1;spacingLeft=3;spacingRight=3;rotatable=0;labelPosition=right;points=[];portConstraint=eastwest;strokeColor=inherit;" vertex="1" parent="wB3c-BsViE5wdefNrvCy-160">
          <mxGeometry y="156" width="160" height="8" as="geometry" />
        </mxCell>
        <mxCell id="wB3c-BsViE5wdefNrvCy-163" value="&amp;nbsp;" style="text;strokeColor=none;fillColor=none;align=left;verticalAlign=top;spacingLeft=4;spacingRight=4;overflow=hidden;rotatable=0;points=[[0,0.5],[1,0.5]];portConstraint=eastwest;whiteSpace=wrap;html=1;" vertex="1" parent="wB3c-BsViE5wdefNrvCy-160">
          <mxGeometry y="164" width="160" height="26" as="geometry" />
        </mxCell>
        <mxCell id="wB3c-BsViE5wdefNrvCy-169" value="" style="endArrow=diamondThin;endFill=0;endSize=24;html=1;rounded=0;entryX=1;entryY=0.5;entryDx=0;entryDy=0;exitX=0.5;exitY=0;exitDx=0;exitDy=0;" edge="1" parent="1" source="wB3c-BsViE5wdefNrvCy-63" target="wB3c-BsViE5wdefNrvCy-158">
          <mxGeometry width="160" relative="1" as="geometry">
            <mxPoint x="-550" y="700" as="sourcePoint" />
            <mxPoint x="-390" y="700" as="targetPoint" />
          </mxGeometry>
        </mxCell>
        <mxCell id="wB3c-BsViE5wdefNrvCy-178" value="1" style="edgeLabel;html=1;align=center;verticalAlign=middle;resizable=0;points=[];" vertex="1" connectable="0" parent="wB3c-BsViE5wdefNrvCy-169">
          <mxGeometry x="0.8272" y="-1" relative="1" as="geometry">
            <mxPoint x="9" y="-12" as="offset" />
          </mxGeometry>
        </mxCell>
        <mxCell id="wB3c-BsViE5wdefNrvCy-179" value="1..*" style="edgeLabel;html=1;align=center;verticalAlign=middle;resizable=0;points=[];" vertex="1" connectable="0" parent="wB3c-BsViE5wdefNrvCy-169">
          <mxGeometry x="-0.8552" y="2" relative="1" as="geometry">
            <mxPoint x="9" y="-11" as="offset" />
          </mxGeometry>
        </mxCell>
        <mxCell id="wB3c-BsViE5wdefNrvCy-170" value="" style="endArrow=diamondThin;endFill=0;endSize=24;html=1;rounded=0;entryX=0.5;entryY=0;entryDx=0;entryDy=0;" edge="1" parent="1" source="wB3c-BsViE5wdefNrvCy-66" target="wB3c-BsViE5wdefNrvCy-48">
          <mxGeometry width="160" relative="1" as="geometry">
            <mxPoint x="-500" y="820" as="sourcePoint" />
            <mxPoint x="-340" y="820" as="targetPoint" />
          </mxGeometry>
        </mxCell>
        <mxCell id="wB3c-BsViE5wdefNrvCy-186" value="1" style="edgeLabel;html=1;align=center;verticalAlign=middle;resizable=0;points=[];" vertex="1" connectable="0" parent="wB3c-BsViE5wdefNrvCy-170">
          <mxGeometry x="0.3696" relative="1" as="geometry">
            <mxPoint x="10" y="-4" as="offset" />
          </mxGeometry>
        </mxCell>
        <mxCell id="wB3c-BsViE5wdefNrvCy-187" value="1..*" style="edgeLabel;html=1;align=center;verticalAlign=middle;resizable=0;points=[];" vertex="1" connectable="0" parent="wB3c-BsViE5wdefNrvCy-170">
          <mxGeometry x="-0.5435" relative="1" as="geometry">
            <mxPoint x="10" y="-9" as="offset" />
          </mxGeometry>
        </mxCell>
        <mxCell id="wB3c-BsViE5wdefNrvCy-171" value="" style="endArrow=diamondThin;endFill=0;endSize=24;html=1;rounded=0;exitX=0.5;exitY=1;exitDx=0;exitDy=0;entryX=0.5;entryY=0;entryDx=0;entryDy=0;exitPerimeter=0;" edge="1" parent="1" source="wB3c-BsViE5wdefNrvCy-84" target="wB3c-BsViE5wdefNrvCy-148">
          <mxGeometry width="160" relative="1" as="geometry">
            <mxPoint x="-640" y="400" as="sourcePoint" />
            <mxPoint x="-480" y="400" as="targetPoint" />
          </mxGeometry>
        </mxCell>
        <mxCell id="wB3c-BsViE5wdefNrvCy-190" value="1" style="edgeLabel;html=1;align=center;verticalAlign=middle;resizable=0;points=[];" vertex="1" connectable="0" parent="wB3c-BsViE5wdefNrvCy-171">
          <mxGeometry x="0.6324" y="-1" relative="1" as="geometry">
            <mxPoint x="11" y="-11" as="offset" />
          </mxGeometry>
        </mxCell>
        <mxCell id="wB3c-BsViE5wdefNrvCy-191" value="1..*" style="edgeLabel;html=1;align=center;verticalAlign=middle;resizable=0;points=[];" vertex="1" connectable="0" parent="wB3c-BsViE5wdefNrvCy-171">
          <mxGeometry x="-0.8088" relative="1" as="geometry">
            <mxPoint x="10" as="offset" />
          </mxGeometry>
        </mxCell>
        <mxCell id="wB3c-BsViE5wdefNrvCy-172" value="" style="endArrow=diamondThin;endFill=0;endSize=24;html=1;rounded=0;entryX=1;entryY=0.5;entryDx=0;entryDy=0;exitX=0;exitY=0.5;exitDx=0;exitDy=0;" edge="1" parent="1" source="wB3c-BsViE5wdefNrvCy-158" target="wB3c-BsViE5wdefNrvCy-147">
          <mxGeometry width="160" relative="1" as="geometry">
            <mxPoint x="-830" y="330" as="sourcePoint" />
            <mxPoint x="-670" y="330" as="targetPoint" />
          </mxGeometry>
        </mxCell>
        <mxCell id="wB3c-BsViE5wdefNrvCy-184" value="1" style="edgeLabel;html=1;align=center;verticalAlign=middle;resizable=0;points=[];" vertex="1" connectable="0" parent="wB3c-BsViE5wdefNrvCy-172">
          <mxGeometry x="0.568" y="3" relative="1" as="geometry">
            <mxPoint y="-12" as="offset" />
          </mxGeometry>
        </mxCell>
        <mxCell id="wB3c-BsViE5wdefNrvCy-185" value="1..*" style="edgeLabel;html=1;align=center;verticalAlign=middle;resizable=0;points=[];" vertex="1" connectable="0" parent="wB3c-BsViE5wdefNrvCy-172">
          <mxGeometry x="-0.712" y="-1" relative="1" as="geometry">
            <mxPoint y="-8" as="offset" />
          </mxGeometry>
        </mxCell>
        <mxCell id="wB3c-BsViE5wdefNrvCy-173" value="" style="endArrow=diamondThin;endFill=0;endSize=24;html=1;rounded=0;exitX=0.5;exitY=0;exitDx=0;exitDy=0;" edge="1" parent="1" source="wB3c-BsViE5wdefNrvCy-130" target="wB3c-BsViE5wdefNrvCy-163">
          <mxGeometry width="160" relative="1" as="geometry">
            <mxPoint x="-200" y="120" as="sourcePoint" />
            <mxPoint x="-40" y="120" as="targetPoint" />
          </mxGeometry>
        </mxCell>
        <mxCell id="wB3c-BsViE5wdefNrvCy-188" value="1" style="edgeLabel;html=1;align=center;verticalAlign=middle;resizable=0;points=[];" vertex="1" connectable="0" parent="wB3c-BsViE5wdefNrvCy-173">
          <mxGeometry x="0.4314" y="-1" relative="1" as="geometry">
            <mxPoint x="9" as="offset" />
          </mxGeometry>
        </mxCell>
        <mxCell id="wB3c-BsViE5wdefNrvCy-189" value="1..*" style="edgeLabel;html=1;align=center;verticalAlign=middle;resizable=0;points=[];" vertex="1" connectable="0" parent="wB3c-BsViE5wdefNrvCy-173">
          <mxGeometry x="-0.6667" relative="1" as="geometry">
            <mxPoint x="10" as="offset" />
          </mxGeometry>
        </mxCell>
        <mxCell id="wB3c-BsViE5wdefNrvCy-175" value="" style="endArrow=diamondThin;endFill=0;endSize=24;html=1;rounded=0;entryX=1;entryY=0.5;entryDx=0;entryDy=0;exitX=0;exitY=0.5;exitDx=0;exitDy=0;" edge="1" parent="1" source="wB3c-BsViE5wdefNrvCy-136" target="wB3c-BsViE5wdefNrvCy-159">
          <mxGeometry width="160" relative="1" as="geometry">
            <mxPoint x="-520" y="430" as="sourcePoint" />
            <mxPoint x="-360" y="430" as="targetPoint" />
          </mxGeometry>
        </mxCell>
        <mxCell id="wB3c-BsViE5wdefNrvCy-180" value="1" style="edgeLabel;html=1;align=center;verticalAlign=middle;resizable=0;points=[];" vertex="1" connectable="0" parent="wB3c-BsViE5wdefNrvCy-175">
          <mxGeometry x="0.645" y="-2" relative="1" as="geometry">
            <mxPoint y="-11" as="offset" />
          </mxGeometry>
        </mxCell>
        <mxCell id="wB3c-BsViE5wdefNrvCy-181" value="1..*" style="edgeLabel;html=1;align=center;verticalAlign=middle;resizable=0;points=[];" vertex="1" connectable="0" parent="wB3c-BsViE5wdefNrvCy-175">
          <mxGeometry x="-0.6925" y="2" relative="1" as="geometry">
            <mxPoint x="5" y="-15" as="offset" />
          </mxGeometry>
        </mxCell>
        <mxCell id="wB3c-BsViE5wdefNrvCy-176" value="" style="endArrow=diamondThin;endFill=0;endSize=24;html=1;rounded=0;entryX=0.5;entryY=0;entryDx=0;entryDy=0;" edge="1" parent="1" source="wB3c-BsViE5wdefNrvCy-151" target="wB3c-BsViE5wdefNrvCy-89">
          <mxGeometry width="160" relative="1" as="geometry">
            <mxPoint x="-580" y="740" as="sourcePoint" />
            <mxPoint x="-420" y="740" as="targetPoint" />
          </mxGeometry>
        </mxCell>
        <mxCell id="wB3c-BsViE5wdefNrvCy-182" value="1" style="edgeLabel;html=1;align=center;verticalAlign=middle;resizable=0;points=[];" vertex="1" connectable="0" parent="wB3c-BsViE5wdefNrvCy-176">
          <mxGeometry x="0.7237" relative="1" as="geometry">
            <mxPoint x="10" y="-10" as="offset" />
          </mxGeometry>
        </mxCell>
        <mxCell id="wB3c-BsViE5wdefNrvCy-183" value="1..*" style="edgeLabel;html=1;align=center;verticalAlign=middle;resizable=0;points=[];" vertex="1" connectable="0" parent="wB3c-BsViE5wdefNrvCy-176">
          <mxGeometry x="-0.8026" relative="1" as="geometry">
            <mxPoint x="10" as="offset" />
          </mxGeometry>
        </mxCell>
      </root>
    </mxGraphModel>
  </diagram>
</mxfile>
